<?xml version="1.0" encoding="UTF-8" standalone="no"?>
<!-- Created with Inkscape (http://www.inkscape.org/) -->
<svg
   xmlns:dc="http://purl.org/dc/elements/1.1/"
   xmlns:cc="http://web.resource.org/cc/"
   xmlns:rdf="http://www.w3.org/1999/02/22-rdf-syntax-ns#"
   xmlns:svg="http://www.w3.org/2000/svg"
   xmlns="http://www.w3.org/2000/svg"
   xmlns:sodipodi="http://sodipodi.sourceforge.net/DTD/sodipodi-0.dtd"
   xmlns:inkscape="http://www.inkscape.org/namespaces/inkscape"
   id="svg2"
   sodipodi:version="0.32"
   inkscape:version="0.44"
   width="170"
   height="279"
   version="1.0"
   sodipodi:docbase="F:\Mes documents\Dessin"
   sodipodi:docname="Parc naturel régional du Massif des Bauges.svg">
  <metadata
     id="metadata7">
    <rdf:RDF>
      <cc:Work
         rdf:about="">
        <dc:format>image/svg+xml</dc:format>
        <dc:type
           rdf:resource="http://purl.org/dc/dcmitype/StillImage" />
      </cc:Work>
    </rdf:RDF>
  </metadata>
  <defs
     id="defs5" />
  <sodipodi:namedview
     inkscape:window-height="712"
     inkscape:window-width="1024"
     inkscape:pageshadow="2"
     inkscape:pageopacity="0.0"
     borderopacity="1.0"
     bordercolor="#666666"
     pagecolor="#ffffff"
     id="base"
     inkscape:zoom="1.0025097"
     inkscape:cx="84.121557"
     inkscape:cy="105.10584"
     inkscape:window-x="-4"
     inkscape:window-y="-4"
     inkscape:current-layer="layer1" />
  <g
     inkscape:groupmode="layer"
     id="layer1"
     inkscape:label="dessin">
    <g
       id="g11667">
      <g
         style="opacity:1"
         transform="translate(-64.93345,-764.4846)"
         id="g5704">
        <path
           sodipodi:type="arc"
           style="opacity:1;color:#000000;fill:#00936f;fill-opacity:1;fill-rule:evenodd;stroke:#00936f;stroke-width:2;stroke-linecap:butt;stroke-linejoin:round;marker:none;marker-start:none;marker-mid:none;marker-end:none;stroke-miterlimit:4;stroke-dasharray:none;stroke-dashoffset:0;stroke-opacity:1;visibility:visible;display:inline;overflow:visible"
           id="path1335"
           sodipodi:cx="196.00807"
           sodipodi:cy="956.60254"
           sodipodi:rx="69.326012"
           sodipodi:ry="137.65453"
           d="M 265.33408 956.60254 A 69.326012 137.65453 0 1 1  126.68206,956.60254 A 69.326012 137.65453 0 1 1  265.33408 956.60254 z"
           transform="matrix(1.198611,0,0,1,-84.81425,-52.86732)" />
        <path
           style="fill:#ffffff;fill-opacity:1;fill-rule:evenodd;stroke:none;stroke-width:1px;stroke-linecap:butt;stroke-linejoin:miter;stroke-opacity:1"
           d="M 132.66704,782.53936 L 142.14326,783.03811 L 136.15828,796.50431 L 147.13074,788.02559 L 151.12073,793.51182 L 144.637,799.4968 L 158.10321,803.98554 L 157.3123,809.0586 L 152.11823,810.46927 L 137.15578,805.48178 L 148.12824,815.45675 L 148.12824,819.44673 L 143.14076,822.93797 L 133.16579,811.96551 L 135.30686,825.22512 L 127.26639,825.07904 L 127.18081,813.46176 L 121.19583,820.44423 L 115.7096,817.45174 L 124.18832,804.98303 L 110.22337,805.98053 L 110.22337,800.4943 L 120.69708,798.99806 L 114.71211,790.51934 L 120.19834,787.0281 L 128.67706,797.00306 L 132.66704,782.53936 z "
           id="path3083"
           sodipodi:nodetypes="ccccccccccccccccccccccccccc" />
      </g>
      <path
         sodipodi:nodetypes="cscczscsscsccsscccscsscccscsscsssc"
         id="path2795"
         d="M 0.3526683,147.10205 C 0.3526683,147.10205 0.17633415,149.57074 0.3526683,152.74475 C 0.52900245,155.91877 1.0580049,159.79811 1.0580049,159.79811 L 15.517405,155.91876 C 15.517405,155.91876 27.243627,153.00925 39.146182,148.51273 C 51.048737,144.01621 51.048737,144.36888 63.127626,137.93268 C 75.206515,131.49648 87.461739,122.76794 87.461739,122.76794 C 87.461739,122.76794 86.756402,129.20413 87.461739,132.64265 C 88.801517,136.96781 93.642081,139.07089 97.68912,140.40136 C 102.09747,141.45937 107.9165,140.75403 107.9165,140.75403 C 107.9165,140.75403 116.38053,141.1067 121.67056,140.04869 C 126.96058,138.99068 129.0766,136.52201 129.0766,136.52201 L 126.96059,143.2227 C 126.96059,143.2227 125.36118,147.46018 126.60792,150.27607 C 129.7149,157.2935 134.84529,159.08534 138.59864,160.50345 C 148.1296,164.10448 158.81829,163.70092 168.92811,163.3248 L 169.28079,160.50345 L 160.11141,160.15078 C 160.11141,160.15078 151.91187,158.91644 146.71001,156.97677 C 141.50815,155.03709 139.30398,152.39208 139.30398,152.39208 C 139.30398,152.39208 137.18797,150.62874 136.8353,146.74939 C 136.48263,142.87004 135.95364,142.16469 137.89331,136.87467 C 139.83299,131.58465 144.594,125.58929 144.594,125.58929 L 136.12996,129.46864 L 123.08124,133.70066 C 123.08124,133.70066 113.55919,135.464 107.9165,135.11133 C 102.27381,134.75866 100.51047,132.28999 100.51047,132.28999 C 100.51047,132.28999 98.129956,130.61482 97.336452,128.05797 C 96.542947,125.50113 97.160117,121.88628 99.099794,119.9466 C 109.71652,109.32988 136.12997,82.211087 136.12997,82.211087 C 136.12997,82.211087 110.43343,100.09755 95.586374,109.38757 C 89.719453,113.05859 51.940104,131.8683 47.257553,133.34799 C 30.815567,138.54366 24.069612,140.48953 12.343391,143.92804 C 0.61716982,147.36656 0.3526683,147.10205 0.3526683,147.10205 z "
         style="fill:white;fill-opacity:1;fill-rule:evenodd;stroke:none;stroke-width:1px;stroke-linecap:butt;stroke-linejoin:miter;stroke-opacity:1" />
      <path
         sodipodi:nodetypes="ccccssccssccsscsssscscsszcsssscsssssscsscc"
         id="path8994"
         d="M 2.3225981,167.20415 L 167.87011,167.20415 L 167.87011,168.96749 L 156.23206,168.96749 C 156.23206,168.96749 153.41071,168.87932 152.00004,169.32016 C 150.58937,169.76099 151.82371,170.37816 150.58937,170.73083 C 149.35503,171.0835 147.06268,170.73083 147.06268,170.73083 L 142.47799,168.96749 C 142.47799,168.96749 139.65665,168.26215 137.54064,168.61482 C 135.42463,168.96749 136.48264,169.93733 134.01396,170.37816 C 131.54528,170.819 127.66593,170.37816 127.66593,170.37816 L 122.02323,169.32016 C 122.02323,169.32016 120.25989,168.35032 118.14388,168.61482 C 116.02787,168.87932 115.76337,169.84916 113.55919,170.37816 C 111.35501,170.90716 109.32717,170.73083 109.32717,170.73083 C 109.32717,170.73083 107.56383,171.25983 105.80049,170.73083 C 104.03715,170.20183 104.12532,169.14382 102.27381,168.61482 C 100.4223,168.08582 100.1578,168.52665 98.394456,168.61482 C 96.631114,168.70299 96.542948,168.35032 95.220442,168.96749 C 93.897936,169.58466 93.478493,170.33538 93.478493,170.33538 C 93.478493,170.33538 92.357227,171.67485 89.80573,171.33287 C 87.254233,170.9909 84.913422,170.33265 82.524383,168.96749 C 82.524383,168.96749 80.849209,168.52665 78.9977,168.61482 C 77.146191,168.70299 76.617188,168.70299 75.118348,169.32016 C 73.619508,169.93733 71.76782,171.25684 69.846047,171.43617 C 67.924273,171.6155 66.376741,170.72478 64.185631,170.02549 C 64.185631,170.02549 62.578148,168.67181 60.658948,168.26215 C 58.739748,167.85249 58.509812,167.93411 56.50883,168.38684 C 54.799492,168.77359 51.461151,170.8457 49.772687,171.0835 C 46.560441,171.5359 46.122995,169.58466 44.083538,168.96749 C 42.044081,168.35032 41.61486,168.61482 41.61486,168.61482 C 41.61486,168.61482 38.881681,168.26215 37.030172,168.61482 C 35.178663,168.96749 35.017456,170.06827 33.959451,170.77361 C 32.448463,172.24124 29.018414,171.29199 26.802791,170.73083 C 24.598614,170.11366 25.480285,169.67283 23.981445,168.96749 C 22.482605,168.26215 22.570771,167.99765 20.80743,167.90948 C 19.044089,167.82131 18.779588,167.90948 16.928079,168.61482 C 15.076571,169.32016 13.401396,170.73083 13.401396,170.73083 C 13.401396,170.73083 12.519724,171.25984 10.932717,171.43617 C 9.3457095,171.61251 8.5522063,171.87701 7.0533661,171.43617 C 5.5545259,170.99534 4.9373562,169.67283 4.9373562,169.67283 L 2.3225981,167.20415 z "
         style="fill:white;fill-opacity:1;fill-rule:evenodd;stroke:none;stroke-width:1px;stroke-linecap:butt;stroke-linejoin:miter;stroke-opacity:1" />
      <path
         sodipodi:nodetypes="cccccccccscscscsssccscscscscsccscscscssscccc"
         id="path10766"
         d="M 3.2418639,174.76161 L 6.4837279,176.7566 L 13.21683,176.50723 L 19.700558,174.26286 L 26.43366,176.50723 L 32.418639,176.7566 L 39.65049,174.01348 L 44.887347,175.26035 L 50.124204,177.50472 C 50.124204,177.50472 54.488251,174.63692 59.101673,174.51223 C 63.715095,174.38754 68.577891,177.00597 68.577891,177.00597 C 68.577891,177.00597 74.438183,174.3252 79.550353,174.26286 C 84.662523,174.20052 89.026571,176.7566 89.026571,176.7566 C 89.026571,176.7566 93.827022,174.26286 99.001537,174.26286 C 104.17605,174.26286 109.72463,176.7566 109.72463,176.7566 C 109.72463,176.7566 114.33805,173.8888 118.95147,173.76411 C 123.56489,173.63942 123.75192,176.07082 128.17831,176.25785 C 132.6047,176.44488 133.10345,174.94864 136.65703,174.51223 C 140.21061,174.07582 142.39264,174.51223 142.39264,174.51223 L 138.9014,178.75159 C 138.9014,178.75159 136.78172,178.68925 134.41267,179.25034 C 132.04361,179.81143 129.42518,180.99596 129.42518,180.99596 C 129.42518,180.99596 123.81426,178.43988 119.20084,178.50222 C 114.58742,178.56456 110.9715,181.24533 110.9715,181.24533 C 110.9715,181.24533 104.30074,179.25034 100.49778,178.75159 C 96.694823,178.25284 95.759673,179.25034 95.759673,179.25034 C 95.759673,179.25034 91.956717,181.0583 89.525319,181.49471 C 87.093921,181.93112 86.034081,180.99596 86.034081,180.99596 C 86.034081,180.99596 83.72737,178.87628 80.54785,178.75159 C 77.36833,178.6269 73.316,180.49721 73.316,180.49721 L 67.081646,180.74659 C 67.081646,180.74659 62.592912,179.188 59.849796,178.75159 C 57.10668,178.31518 56.109183,179.00097 56.109183,179.00097 C 56.109183,179.00097 52.804975,181.18299 49.376081,181.24533 C 45.947187,181.30767 42.393605,179.25034 42.393605,179.25034 C 42.393605,179.25034 40.211581,178.50222 37.406122,179.00097 C 34.600663,179.49972 31.171769,181.24533 31.171769,181.24533 C 31.171769,181.24533 27.805217,181.93111 25.685537,181.24533 C 23.565857,180.55955 24.999759,179.25034 22.693048,178.50222 C 20.386337,177.7541 18.703062,177.6294 16.458694,178.25284 C 14.214327,178.87627 13.715578,180.99596 13.715578,180.99596 L 6.2343537,180.99596 L 3.9899864,179.25034 L 3.2418639,174.76161 z "
         style="fill:white;fill-opacity:1;fill-rule:evenodd;stroke:none;stroke-width:1px;stroke-linecap:butt;stroke-linejoin:miter;stroke-opacity:1" />
      <path
         sodipodi:nodetypes="cccsssssscsssccsssssssssssscc"
         id="path11653"
         d="M 15.211823,184.4872 L 33.416136,191.46967 L 37.406122,189.47468 C 37.406122,189.47468 39.962208,188.3525 43.141728,188.97593 C 46.321248,189.59937 46.009531,191.90608 50.124204,191.96842 C 54.238877,192.03077 54.675281,189.16297 59.600421,189.22531 C 64.52556,189.28766 64.961966,192.28015 69.824762,192.2178 C 74.687558,192.15546 74.126466,188.97593 79.051605,188.97593 C 83.976744,188.97593 84.475493,192.2178 89.525319,192.2178 C 94.575145,192.2178 99.250911,188.97593 99.250911,188.97593 C 99.250911,188.97593 103.61496,191.59436 108.72713,191.71905 C 113.8393,191.84374 114.58742,189.41234 119.69959,189.47468 C 124.81176,189.53702 124.25067,192.03076 129.17581,191.96842 C 134.10095,191.90608 139.40015,189.22531 139.40015,189.22531 L 138.65203,183.4897 C 138.65203,183.4897 135.78422,184.17548 132.91642,184.73657 C 130.04862,185.29766 130.7344,186.10813 127.18082,185.73407 C 123.62724,185.36001 123.31551,183.24033 118.70209,183.24033 C 114.08867,183.24033 113.71461,185.73407 108.72713,185.73407 C 103.73965,185.73407 103.92668,183.36502 98.752163,183.24033 C 93.577649,183.11564 93.0789,185.04829 88.029074,185.23532 C 82.979248,185.42235 83.353309,183.86376 78.552857,183.98845 C 73.752405,184.11314 73.814748,185.85876 68.827265,185.73407 C 63.839782,185.60938 63.964469,183.42736 58.602925,183.4897 C 53.241381,183.55204 51.869823,185.98344 47.381088,185.98344 C 42.892353,185.98344 44.76266,183.36501 40.647986,183.4897 C 36.533313,183.61439 35.535816,186.41985 30.922394,186.48219 C 26.308972,186.54454 22.194299,183.73908 22.194299,183.73908 L 15.211823,184.4872 z "
         style="fill:white;fill-opacity:1;fill-rule:evenodd;stroke:none;stroke-width:1px;stroke-linecap:butt;stroke-linejoin:miter;stroke-opacity:1" />
      <path
         sodipodi:nodetypes="ccssssscsssscssssc"
         id="path11655"
         d="M 40.149238,193.71404 L 54.862313,200.19777 C 54.862313,200.19777 56.545589,198.26511 60.09917,198.70152 C 63.652752,199.13793 64.026813,201.8187 69.076639,201.94339 C 74.126465,202.06808 75.061619,199.32496 80.298476,199.20027 C 85.535333,199.07558 84.974242,201.50698 90.024068,201.44464 C 95.073894,201.3823 96.44545,200.32246 100.49778,198.9509 C 104.55011,197.57934 106.23339,195.95841 106.23339,195.95841 C 106.23339,195.95841 103.49028,193.52701 100.74716,192.96592 C 98.004044,192.40483 97.941698,192.90358 95.260925,193.71404 C 92.580152,194.52451 93.515306,196.33247 90.024068,196.20778 C 86.53283,196.08309 84.78721,193.90107 81.295972,193.21529 C 77.804734,192.52951 76.059115,193.46467 76.059115,193.46467 C 76.059115,193.46467 73.004282,195.45966 69.575387,195.45966 C 66.146493,195.45966 65.710088,193.96342 62.343537,193.46467 C 58.976986,192.96592 58.291207,192.90358 56.109183,193.46467 C 53.927159,194.02576 57.605428,195.64669 53.615442,195.70903 C 49.625456,195.77137 40.149238,193.71404 40.149238,193.71404 z "
         style="fill:white;fill-opacity:1;fill-rule:evenodd;stroke:none;stroke-width:1px;stroke-linecap:butt;stroke-linejoin:miter;stroke-opacity:1" />
      <path
         sodipodi:nodetypes="ccsssccscc"
         id="path11657"
         d="M 140.64702,193.46467 L 136.15829,193.46467 C 136.15829,193.46467 134.91141,194.71154 132.41767,195.21029 C 129.92393,195.70904 128.80175,195.95841 126.18332,195.45966 C 123.56489,194.96091 124.68708,193.83873 121.94396,193.21529 C 119.20085,192.59186 115.21086,192.96592 115.21086,192.96592 L 113.96399,195.70903 C 113.96399,195.70903 113.52758,193.83873 121.69458,195.95841 C 129.86158,198.07809 146.632,204.18776 146.632,204.18776 L 140.64702,193.46467 z "
         style="fill:white;fill-opacity:1;fill-rule:evenodd;stroke:none;stroke-width:1px;stroke-linecap:butt;stroke-linejoin:miter;stroke-opacity:1" />
      <path
         sodipodi:nodetypes="ccsccccscssc"
         id="path11659"
         d="M 68.328517,205.93337 L 75.560367,209.92336 C 75.560367,209.92336 80.049101,208.86352 83.041591,209.42461 C 86.034081,209.9857 87.530326,212.16773 87.530326,212.16773 L 100.74716,209.17524 L 99.001537,202.94088 L 94.762176,202.94088 C 94.762176,202.94088 93.639992,205.49697 91.270938,206.18275 C 88.901884,206.86853 85.285959,205.684 85.285959,205.684 C 85.285959,205.684 83.976745,204.2501 81.545347,203.68901 C 79.113949,203.12792 78.864575,202.87854 75.560367,203.43963 C 72.256159,204.00072 68.328517,205.93337 68.328517,205.93337 z "
         style="fill:white;fill-opacity:1;fill-rule:evenodd;stroke:none;stroke-width:1px;stroke-linecap:butt;stroke-linejoin:miter;stroke-opacity:1" />
      <path
         sodipodi:nodetypes="cccccscc"
         id="path11661"
         d="M 87.530326,215.65897 C 91.769687,218.40208 94.512802,220.39708 94.512802,220.39708 L 101.99403,218.90083 L 105.73464,221.1452 L 110.72212,220.89582 C 110.72212,220.89582 107.5426,214.97318 103.2409,213.16522 C 98.939196,211.35726 93.515306,213.66397 93.515306,213.66397 L 87.530326,215.65897 z "
         style="fill:white;fill-opacity:1;fill-rule:evenodd;stroke:none;stroke-width:1px;stroke-linecap:butt;stroke-linejoin:miter;stroke-opacity:1" />
      <path
         id="path11663"
         d="M 102.2434,224.13769 L 112.96649,230.87079 L 117.20585,228.8758 L 113.46524,223.38956 L 111.96899,225.38456 L 105.48526,225.13518 L 102.2434,224.13769 z "
         style="fill:white;fill-opacity:1;fill-rule:evenodd;stroke:none;stroke-width:1px;stroke-linecap:butt;stroke-linejoin:miter;stroke-opacity:1" />
      <path
         id="path11665"
         d="M 118.45272,233.6139 L 136.40766,247.32948 L 123.4402,233.11516 L 118.45272,233.6139 z "
         style="fill:white;fill-opacity:1;fill-rule:evenodd;stroke:none;stroke-width:1px;stroke-linecap:butt;stroke-linejoin:miter;stroke-opacity:1" />
    </g>
  </g>
</svg>
